<svg width="26" height="28" viewBox="0 0 26 28" fill="none" xmlns="http://www.w3.org/2000/svg">
<path d="M24.5249 9.5L22.2749 5.6025C21.9799 5.0908 21.5602 4.6621 21.0548 4.35631C20.5495 4.05053 19.975 3.8776 19.3848 3.85365C18.7946 3.82969 18.208 3.95548 17.6795 4.2193C17.1511 4.48313 16.698 4.8764 16.3624 5.3625L14.4449 2.03875C14.1416 1.51348 13.707 1.07606 13.1837 0.76937C12.6604 0.462684 12.0663 0.29726 11.4598 0.289319C10.8533 0.281379 10.2552 0.431194 9.724 0.724076C9.19284 1.01696 8.74691 1.44285 8.42994 1.96C7.81088 1.40265 7.01334 1.08437 6.18065 1.06235C5.34796 1.04033 4.53471 1.31602 3.88706 1.83986C3.23941 2.3637 2.79982 3.10136 2.6473 3.92026C2.49477 4.73916 2.63931 5.58561 3.05494 6.3075L3.47244 7.03125C2.88362 7.07857 2.31635 7.27415 1.82348 7.59978C1.33061 7.9254 0.928181 8.37048 0.653672 8.89354C0.379163 9.41661 0.241509 10.0006 0.253533 10.5912C0.265557 11.1818 0.426868 11.7598 0.72244 12.2712L5.47244 20.4987C6.19174 21.752 7.15235 22.8502 8.29873 23.7299C9.4451 24.6096 10.7545 25.2533 12.1512 25.6237C13.0857 25.8734 14.0489 25.9995 15.0162 25.9987C16.9454 25.9955 18.8399 25.485 20.5095 24.5184C22.1791 23.5517 23.5651 22.163 24.5284 20.4915C25.4918 18.82 25.9986 16.9245 25.9979 14.9953C25.9973 13.066 25.4893 11.1709 24.5249 9.5ZM23.6912 17.3287C23.2306 19.0481 22.2704 20.5923 20.9321 21.7661C19.5939 22.9398 17.9376 23.6903 16.1728 23.9227C14.408 24.1551 12.614 23.859 11.0175 23.0717C9.42096 22.2845 8.09376 21.0415 7.20369 19.5L2.45369 11.2725C2.3552 11.1019 2.29128 10.9135 2.26559 10.7182C2.23989 10.5228 2.25292 10.3243 2.30394 10.134C2.40697 9.7497 2.65845 9.42203 3.00306 9.22312C3.34768 9.02421 3.7572 8.97034 4.14153 9.07337C4.33183 9.12438 4.51022 9.21238 4.66652 9.33234C4.82281 9.45229 4.95395 9.60186 5.05244 9.7725L7.80244 14.535C7.86616 14.6523 7.95275 14.7557 8.05708 14.8391C8.16141 14.9224 8.28138 14.9841 8.40991 15.0203C8.53844 15.0565 8.67293 15.0666 8.80543 15.0501C8.93793 15.0335 9.06577 14.9905 9.18141 14.9237C9.29704 14.8569 9.39813 14.7677 9.4787 14.6612C9.55927 14.5547 9.6177 14.4331 9.65053 14.3037C9.68337 14.1742 9.68995 14.0395 9.66988 13.9075C9.64981 13.7755 9.6035 13.6488 9.53369 13.535L4.78369 5.30875C4.63537 5.0518 4.56657 4.75665 4.586 4.46061C4.60543 4.16456 4.71221 3.88093 4.89284 3.64558C5.07347 3.41022 5.31983 3.23372 5.60078 3.13839C5.88172 3.04305 6.18463 3.03317 6.47119 3.11C6.6618 3.16027 6.84052 3.24794 6.99696 3.36789C7.1534 3.48785 7.28443 3.6377 7.38244 3.80875L11.6324 11.17C11.7687 11.3922 11.9864 11.5524 12.239 11.6165C12.4917 11.6806 12.7594 11.6435 12.9851 11.5131C13.2108 11.3827 13.3767 11.1694 13.4474 10.9185C13.5181 10.6676 13.4881 10.3991 13.3637 10.17L10.1137 4.545C9.92336 4.20106 9.87563 3.79616 9.98079 3.4174C10.086 3.03864 10.3356 2.7163 10.676 2.51972C11.0164 2.32314 11.4204 2.26805 11.801 2.36628C12.1816 2.46452 12.5084 2.70823 12.7112 3.045L16.9999 10.4725C15.9082 11.3771 15.1713 12.6385 14.9197 14.0338C14.6681 15.4292 14.9179 16.8685 15.6249 18.0975C15.7575 18.3272 15.976 18.4949 16.2322 18.5636C16.4884 18.6323 16.7614 18.5964 16.9912 18.4637C17.2209 18.3311 17.3886 18.1127 17.4573 17.8565C17.526 17.6003 17.49 17.3272 17.3574 17.0975C16.8271 16.1788 16.6834 15.0871 16.9579 14.0625C17.2324 13.0379 17.9026 12.1642 18.8212 11.6337C18.935 11.5681 19.0347 11.4807 19.1147 11.3765C19.1947 11.2723 19.2533 11.1534 19.2874 11.0265C19.3214 10.8996 19.33 10.7673 19.3129 10.6371C19.2958 10.5068 19.2531 10.3812 19.1874 10.2675L17.9374 8.1025C17.7471 7.75856 17.6994 7.35366 17.8045 6.9749C17.9097 6.59614 18.1593 6.2738 18.4997 6.07722C18.8401 5.88064 19.2441 5.82555 19.6247 5.92378C20.0053 6.02202 20.3322 6.26573 20.5349 6.6025L22.7849 10.5C23.3801 11.5215 23.7667 12.651 23.9223 13.8229C24.0778 14.9949 23.9993 16.1861 23.6912 17.3275V17.3287ZM20.0337 0.741245C20.0676 0.614335 20.1263 0.495357 20.2062 0.391109C20.2861 0.286861 20.3858 0.199387 20.4996 0.133684C20.6134 0.0679807 20.739 0.0253372 20.8692 0.00818936C20.9994 -0.00895845 21.1318 -0.000274386 21.2587 0.0337454C23.2474 0.567495 24.8837 1.7975 25.8662 3.5C25.9988 3.72974 26.0347 4.00275 25.966 4.25897C25.8973 4.51519 25.7297 4.73364 25.4999 4.86625C25.2702 4.99885 24.9972 5.03476 24.741 4.96608C24.4847 4.89739 24.2663 4.72974 24.1337 4.5C23.4187 3.26 22.2137 2.36 20.7412 1.96625C20.6143 1.9323 20.4953 1.87368 20.3911 1.79374C20.2868 1.7138 20.1993 1.6141 20.1336 1.50033C20.0679 1.38657 20.0253 1.26098 20.0081 1.13073C19.991 1.00049 19.9997 0.868136 20.0337 0.741245ZM7.11369 26.625C7.03239 26.7282 6.93154 26.8144 6.81691 26.8786C6.70228 26.9428 6.57612 26.9838 6.44564 26.9993C6.31516 27.0147 6.18291 27.0043 6.05646 26.9686C5.93001 26.9329 5.81184 26.8726 5.70869 26.7912C4.33369 25.705 3.19494 24.3437 2.13369 22.5062C2.00108 22.2765 1.96517 22.0035 2.03385 21.7473C2.10254 21.491 2.2702 21.2726 2.49994 21.14C2.72968 21.0074 3.0027 20.9715 3.25892 21.0402C3.51514 21.1088 3.73358 21.2765 3.86619 21.5062C4.79619 23.1162 5.77494 24.2962 6.94744 25.2212C7.15553 25.3854 7.28993 25.6255 7.3211 25.8887C7.35227 26.1519 7.27767 26.4168 7.11369 26.625Z" fill="#B6605C"/>
</svg>
