<svg width="257" height="207" viewBox="0 0 257 207" fill="none" xmlns="http://www.w3.org/2000/svg">
<g clip-path="url(#clip0_9_141)">
<path d="M89.9271 69.5259C91.7682 67.1094 96.1537 61.9363 98.8233 60.5987H99.3682L101.036 60.0408C101.592 59.4828 102.818 58.3669 103.246 58.3669C103.802 58.3669 110.477 66.1782 111.589 67.8521C112.701 69.5259 112.145 70.0691 112.145 71.1998C112.145 72.094 111.409 71.9388 111.041 71.7577L108.831 87.3841L110.5 92.9636L134.408 82.9168L137.188 88.5C130.704 91.8477 116.936 98.9902 113.836 100.775C110.735 102.56 108.088 102.992 107.163 102.992L106.604 107.456H82.6952C79.1345 107.456 77.1351 106.347 76.5791 105.782C76.2277 96.2221 78.5381 86.7535 83.2512 78.4384C85.0334 75.3308 88.4431 71.1998 89.9271 69.5259Z" fill="#FFF0D8"/>
<path d="M106.199 75.6634C106.641 78.7635 110.363 93.2518 110.363 93.2518L143.249 79.2107L146.78 83.6447C146.78 83.6447 125.166 95.5945 111.932 101.791C98.698 107.988 96.4923 92.0583 93.8485 74.3591" stroke="#661814" stroke-width="1.56" stroke-miterlimit="10"/>
<path d="M112.374 68.591L112.005 71.8316C111.994 71.9053 111.965 71.9752 111.921 72.0348C111.876 72.0952 111.817 72.1424 111.748 72.1716C111.679 72.2053 111.602 72.2169 111.527 72.2048C111.452 72.196 111.381 72.168 111.321 72.1235L111.125 71.9757L111.217 70.7379C111.297 69.689 111.091 68.6383 110.621 67.6978C110.152 66.7574 109.436 65.9627 108.552 65.3986L101.334 60.7945C101.072 60.6326 100.788 60.5082 100.491 60.425L102.126 58.6144C102.247 58.4829 102.393 58.3784 102.557 58.3078C102.722 58.2373 102.901 58.2045 103.08 58.2117C103.257 58.2161 103.432 58.2589 103.592 58.3373C103.752 58.4162 103.893 58.5298 104.004 58.6699L112.374 68.591Z" stroke="#661814" stroke-width="1.56" stroke-miterlimit="10"/>
<path d="M100.506 60.3992C100.803 60.4824 101.087 60.6068 101.349 60.7687L108.574 65.3801C109.458 65.9442 110.174 66.7389 110.643 67.6793C111.113 68.6198 111.319 69.6705 111.24 70.7194L111.148 71.9573" stroke="#661814" stroke-width="1.56" stroke-miterlimit="10"/>
<path d="M111.151 71.9683L109.104 87.9531" stroke="#661814" stroke-width="1.56" stroke-miterlimit="10"/>
<path d="M76.6784 106.414C74.7452 83.8258 90.7371 67.1833 97.5455 61.0828C97.9399 60.7225 98.4187 60.4682 98.9374 60.3437C99.4551 60.2223 99.9952 60.2363 100.506 60.3844" stroke="#661814" stroke-width="1.56" stroke-miterlimit="10"/>
<path d="M119.989 47.1081C120.077 43.886 116.649 38.6095 109.56 40.5531C102.472 42.4967 99.6407 48.5529 100.963 51.7528C102.285 54.9527 105.234 56.5822 108.198 54.8566C108.198 54.8566 106.541 51.6641 108.89 50.0826C111.24 48.5011 111.567 51.8599 111.184 53.1273C110.801 54.3947 113.265 52.3883 114.347 50.4152C114.939 50.422 115.527 50.3095 116.074 50.0841C116.622 49.8588 117.119 49.5253 117.536 49.1034C118.254 48.3234 119.08 47.6514 119.989 47.1081Z" fill="#661814"/>
<path d="M108.894 40.3018C109.216 40.1063 109.47 39.8167 109.623 39.4719C109.775 39.127 109.819 38.7436 109.748 38.373C109.174 35.3726 105.9 30.946 100.679 32.9709C94.5665 35.3357 97.4461 40.8893 100.237 40.8413C101.983 40.866 103.652 41.5632 104.899 42.7886L108.894 40.3018Z" fill="#661814"/>
<path d="M109.575 58.1969C109.575 58.1969 114.959 63.1483 116.089 62.4942C117.219 61.8402 118.722 57.166 118.722 57.166C119.338 57.2518 119.964 57.209 120.563 57.0404C121.137 56.7448 119.55 54.391 119.657 52.5731C119.764 50.7551 120.287 48.3644 119.716 47.2522" stroke="#661814" stroke-width="1.56" stroke-miterlimit="10"/>
<path d="M103.551 58.4038C104.736 57.2963 105.802 56.0678 106.733 54.7383" stroke="#661814" stroke-width="1.56" stroke-miterlimit="10"/>
<path d="M112.771 60.8648C112.771 60.8648 109.678 64.4896 109.704 65.8937" stroke="#661814" stroke-width="1.56" stroke-miterlimit="10"/>
<path d="M119.731 47.2522C119.425 48.6378 117.006 51.4941 114.771 51.2502" stroke="#661814" stroke-width="1.56" stroke-miterlimit="10"/>
<path d="M105.436 43.4204C104.726 42.7295 102.627 41.1184 100.808 41.4916C98.9889 41.8648 98.5618 41.0076 98.5618 41.0076" stroke="#661814" stroke-width="1.56" stroke-miterlimit="10"/>
<path d="M134.397 82.987L137.383 88.7401" stroke="#661814" stroke-width="1.56" stroke-miterlimit="10"/>
<path d="M143.691 79.6503C143.691 79.6503 144.652 77.3151 145.234 76.8089C145.602 76.48 146.67 76.8532 147.377 77.1784C147.442 77.205 147.498 77.2499 147.539 77.3077C147.58 77.3666 147.604 77.4355 147.609 77.5072C147.616 77.5795 147.603 77.6524 147.571 77.7176C147.539 77.7829 147.49 77.838 147.428 77.8767L146.324 78.5898C146.324 78.5898 146.294 79.7427 147.126 79.787C147.701 79.787 151.295 78.0171 153.239 77.0084C153.283 76.9937 153.331 76.9937 153.375 77.0084C153.421 77.023 153.461 77.0514 153.489 77.0896C153.514 77.1292 153.526 77.1759 153.523 77.2227C153.519 77.2708 153.5 77.3164 153.467 77.352C151.541 79.1589 149.417 81.7861 146.335 83.2234" stroke="#661814" stroke-width="1.56" stroke-miterlimit="10"/>
<path d="M146.327 78.564L157.19 73.4131C157.241 73.3917 157.296 73.3792 157.352 73.3762C157.406 73.3764 157.46 73.3877 157.51 73.4093C157.56 73.4309 157.605 73.4623 157.643 73.5018C157.68 73.542 157.708 73.5899 157.724 73.6422L157.897 74.1669C157.937 74.274 157.937 74.3923 157.897 74.4995C157.854 74.6065 157.772 74.6935 157.669 74.7433L146.99 79.8757L146.327 78.564Z" fill="#661814"/>
<path d="M93.6313 74.6731C93.6313 74.6731 91.746 106.018 106.641 105.907L106.928 103.14C106.928 103.14 101.949 103.509 99.2835 98.1625C96.6176 92.8158 93.6313 74.6731 93.6313 74.6731Z" fill="#661814"/>
<path d="M106.394 75.6375L109.461 84.9527L109.093 87.7794L107.149 80.1972L106.394 75.6375Z" fill="#661814"/>
<path d="M104.799 57.166L109.697 65.1916L103.636 58.3263L104.799 57.166Z" fill="#661814"/>
<path d="M97.2472 206.745C97.3626 192.98 102.893 179.819 112.633 170.126C122.374 160.434 135.535 154.995 149.253 154.995C162.97 154.995 176.132 160.434 185.873 170.126C195.613 179.819 201.143 192.98 201.259 206.745H97.2472Z" fill="#F1C4C2"/>
<path d="M109.642 106.532L142.929 203.342H136.787L86.2964 110.718L109.642 106.532Z" fill="#661814"/>
<path d="M257.004 206.553H-0.0146484" stroke="#661814" stroke-width="1.18" stroke-miterlimit="10"/>
<path d="M138.201 206.464L136.982 203.349H143.15C145.617 203.349 146.987 204.34 148.883 205.515C148.959 205.553 149.019 205.617 149.053 205.695C149.088 205.773 149.094 205.86 149.072 205.942C149.049 206.025 148.999 206.096 148.93 206.146C148.86 206.195 148.776 206.219 148.691 206.213L138.201 206.464Z" stroke="#661814" stroke-miterlimit="10"/>
<path d="M106.136 180.717L107.307 177.691L111.762 177.746C114.229 177.746 115.599 178.737 117.496 179.915C117.572 179.954 117.633 180.018 117.667 180.096C117.701 180.175 117.708 180.263 117.685 180.345C117.662 180.428 117.611 180.5 117.541 180.549C117.471 180.598 117.386 180.621 117.3 180.614L106.136 180.717Z" stroke="#661814" stroke-miterlimit="10"/>
<path d="M116.144 123.954C108.386 125.968 97.2509 126.829 88.2443 124.102C80.7915 121.84 77.8751 114.546 76.4943 105.996C79.6241 108.183 88.7929 106.613 102.969 106.306L134.486 106.676C135.494 106.688 136.484 106.946 137.372 107.427C138.259 107.909 139.017 108.599 139.579 109.439C140.142 110.279 140.494 111.243 140.603 112.249C140.712 113.255 140.577 114.273 140.208 115.215L112.992 177.787L107.292 177.691L123.719 120.972C122.062 122.047 119.396 123.1 116.13 123.954C108.371 125.968 97.2362 126.829 88.2295 124.102" fill="#661814"/>
<path d="M117.547 125.583H79.5284C78.2635 125.583 77.238 126.612 77.238 127.882V128.706C77.238 129.975 78.2635 131.004 79.5284 131.004H117.547C118.812 131.004 119.838 129.975 119.838 128.706V127.882C119.838 126.612 118.812 125.583 117.547 125.583Z" fill="#FFF0D8" stroke="#661814" stroke-width="1.29" stroke-miterlimit="10"/>
<path d="M84.0428 131.085L72.4218 206.416" stroke="#661814" stroke-width="1.29" stroke-miterlimit="10"/>
<path d="M114.277 131.085L125.899 206.416" stroke="#661814" stroke-width="1.29" stroke-miterlimit="10"/>
<path d="M99.162 131.207V206.416" stroke="#661814" stroke-width="1.29" stroke-miterlimit="10"/>
<path d="M76.8956 180.518L121.318 180.802" stroke="#661814" stroke-width="1.29" stroke-miterlimit="10"/>
<path d="M106.924 103.143L106.6 106.48" stroke="#661814" stroke-width="1.56" stroke-miterlimit="10"/>
<path d="M25.3225 181.888H50.1185L47.6514 206.416H27.2225L25.3225 181.888Z" stroke="#661814" stroke-miterlimit="10"/>
<path d="M9.43384 206.996C9.9383 206.996 27.1526 201.084 27.1526 201.084L27.5208 206.257L9.43384 206.996Z" fill="#661814"/>
<path d="M26.7255 151.689L37.124 160.516C37.124 160.516 36.9657 177.617 36.9805 178.766" stroke="#661814" stroke-miterlimit="10"/>
<path d="M34.4987 158.288L37.2861 139.625L53.0754 130.258" stroke="#661814" stroke-miterlimit="10" stroke-linecap="round"/>
<path d="M43.7852 135.771L30.6729 110.626L17.2107 103.243" stroke="#661814" stroke-miterlimit="10" stroke-linecap="round"/>
<path d="M31.8548 151.844C31.4866 152.291 30.5219 152.106 30.5219 152.106C30.5219 152.106 30.1168 151.194 30.4703 150.747C30.5352 150.636 30.6231 150.54 30.7281 150.466C30.8332 150.392 30.9528 150.341 31.0789 150.318C31.2051 150.294 31.3348 150.298 31.4593 150.33C31.5838 150.361 31.7001 150.418 31.8004 150.499C31.9007 150.579 31.9826 150.68 32.0406 150.795C32.0985 150.91 32.1312 151.036 32.1364 151.164C32.1416 151.293 32.1191 151.421 32.0705 151.541C32.0219 151.66 31.9484 151.767 31.8548 151.855V151.844Z" fill="#661814"/>
<path d="M30.452 153.843C30.0838 153.403 30.452 152.48 30.452 152.48C30.452 152.48 31.424 152.273 31.7886 152.712C31.8843 152.798 31.9606 152.903 32.0121 153.021C32.0635 153.139 32.089 153.267 32.0869 153.395C32.0847 153.524 32.0549 153.651 31.9995 153.767C31.944 153.883 31.8643 153.985 31.7657 154.068C31.6671 154.15 31.5519 154.21 31.4281 154.243C31.3043 154.277 31.1747 154.283 31.0483 154.262C30.9218 154.241 30.8014 154.192 30.6953 154.12C30.5892 154.048 30.4999 153.953 30.4336 153.843H30.452Z" fill="#661814"/>
<path d="M28.9274 152.635C29.4466 152.871 30.2309 152.265 30.2309 152.265C30.2309 152.265 30.172 151.268 29.6528 151.035C29.5454 150.967 29.4248 150.922 29.2989 150.905C29.1731 150.887 29.045 150.897 28.9232 150.933C28.8014 150.97 28.6887 151.032 28.5927 151.115C28.4967 151.199 28.4197 151.302 28.3667 151.418C28.3137 151.534 28.286 151.66 28.2855 151.787C28.285 151.915 28.3118 152.041 28.3638 152.157C28.4159 152.273 28.4921 152.377 28.5874 152.462C28.6827 152.546 28.7948 152.609 28.9163 152.646L28.9274 152.635Z" fill="#661814"/>
<path d="M25.1016 148.855C25.525 149.224 25.2857 150.204 25.2857 150.204C25.2857 150.204 24.3541 150.573 23.927 150.178C23.8173 150.108 23.7239 150.015 23.6535 149.906C23.5831 149.796 23.5373 149.673 23.5193 149.544C23.5013 149.415 23.5114 149.283 23.5491 149.158C23.5867 149.034 23.651 148.919 23.7374 148.822C23.8238 148.724 23.9301 148.647 24.0492 148.595C24.1684 148.543 24.2974 148.518 24.4272 148.521C24.557 148.524 24.6845 148.556 24.801 148.613C24.9174 148.671 25.02 148.753 25.1016 148.855Z" fill="#661814"/>
<path d="M27.0237 150.366C26.5672 150.706 25.6687 150.27 25.6687 150.27C25.6687 150.27 25.5177 149.283 25.9743 148.943C26.0651 148.853 26.1742 148.784 26.2941 148.739C26.4141 148.695 26.5421 148.677 26.6695 148.687C26.797 148.697 26.9208 148.734 27.0326 148.796C27.1445 148.858 27.2418 148.943 27.3178 149.047C27.3938 149.15 27.4469 149.268 27.4734 149.393C27.4999 149.519 27.4992 149.649 27.4713 149.774C27.4434 149.899 27.3889 150.017 27.3117 150.119C27.2345 150.221 27.1363 150.305 27.0237 150.366Z" fill="#661814"/>
<path d="M25.724 151.844C25.9891 151.334 25.4183 150.514 25.4183 150.514C25.4183 150.514 24.4241 150.514 24.159 151.024C24.0809 151.128 24.0264 151.248 23.9991 151.375C23.9718 151.503 23.9725 151.634 24.0011 151.762C24.0297 151.889 24.0855 152.008 24.1647 152.111C24.2439 152.215 24.3445 152.299 24.4596 152.36C24.5747 152.42 24.7016 152.454 24.8313 152.461C24.961 152.467 25.0904 152.445 25.2107 152.396C25.331 152.347 25.4393 152.272 25.5279 152.177C25.6165 152.081 25.6834 151.968 25.724 151.844Z" fill="#661814"/>
<path d="M28.6955 157.878C29.0232 157.409 30.01 157.538 30.01 157.538C30.01 157.538 30.4666 158.425 30.1426 158.894C30.0863 159.011 30.0053 159.115 29.9052 159.198C29.8051 159.28 29.6882 159.34 29.5628 159.373C29.4373 159.406 29.3062 159.411 29.1785 159.388C29.0509 159.365 28.9297 159.315 28.8234 159.24C28.7172 159.166 28.6283 159.069 28.5631 158.956C28.4979 158.844 28.4578 158.718 28.4456 158.589C28.4334 158.459 28.4495 158.329 28.4926 158.206C28.5358 158.083 28.605 157.971 28.6955 157.878Z" fill="#661814"/>
<path d="M29.9805 155.783C30.3708 156.201 30.0431 157.146 30.0431 157.146C30.0431 157.146 29.0821 157.412 28.6918 156.995C28.589 156.916 28.5047 156.815 28.4446 156.699C28.3846 156.584 28.3502 156.457 28.3439 156.327C28.3377 156.197 28.3596 156.067 28.4083 155.947C28.457 155.826 28.5312 155.717 28.6259 155.628C28.7205 155.539 28.8332 155.472 28.9563 155.431C29.0794 155.39 29.2099 155.377 29.3387 155.391C29.4676 155.406 29.5918 155.449 29.7026 155.516C29.8134 155.584 29.9082 155.675 29.9805 155.783Z" fill="#661814"/>
<path d="M31.5713 156.899C31.0411 156.696 30.2936 157.357 30.2936 157.357C30.2936 157.357 30.4077 158.351 30.9417 158.554C31.0538 158.62 31.1788 158.66 31.3081 158.673C31.4373 158.685 31.5677 158.669 31.6901 158.625C31.8126 158.582 31.9241 158.513 32.0171 158.422C32.1101 158.331 32.1822 158.221 32.2284 158.099C32.2747 157.977 32.2941 157.847 32.2852 157.717C32.2762 157.587 32.2392 157.46 32.1767 157.346C32.1141 157.232 32.0276 157.133 31.9231 157.056C31.8185 156.978 31.6985 156.925 31.5713 156.899Z" fill="#661814"/>
<path d="M39.5212 153.555C38.9541 153.488 38.5969 152.557 38.5969 152.557C38.5969 152.557 39.1603 151.73 39.7237 151.796C39.8537 151.789 39.9835 151.811 40.1043 151.859C40.2251 151.908 40.3339 151.983 40.423 152.078C40.5121 152.173 40.5795 152.287 40.6204 152.411C40.6613 152.535 40.6747 152.666 40.6598 152.796C40.6449 152.926 40.6019 153.05 40.534 153.162C40.466 153.273 40.3746 153.368 40.2661 153.441C40.1577 153.513 40.0349 153.561 39.9062 153.58C39.7775 153.6 39.6461 153.591 39.5212 153.555Z" fill="#661814"/>
<path d="M37.0762 153.414C37.2567 152.871 38.2398 152.716 38.2398 152.716C38.2398 152.716 38.9284 153.455 38.748 153.976C38.7256 154.103 38.6762 154.223 38.6033 154.328C38.5305 154.434 38.4358 154.523 38.3256 154.588C38.2155 154.654 38.0926 154.695 37.9652 154.709C37.8379 154.722 37.7091 154.708 37.5877 154.668C37.4662 154.627 37.355 154.56 37.2615 154.472C37.168 154.385 37.0945 154.277 37.0459 154.159C36.9974 154.04 36.975 153.912 36.9802 153.783C36.9854 153.655 37.0182 153.529 37.0762 153.414Z" fill="#661814"/>
<path d="M37.2971 151.475C37.3707 152.044 38.306 152.387 38.306 152.387C38.306 152.387 39.1198 151.815 39.0425 151.245C39.0442 151.117 39.0185 150.99 38.9669 150.873C38.9154 150.755 38.8394 150.651 38.7439 150.565C38.6485 150.48 38.5359 150.416 38.4138 150.379C38.2917 150.341 38.1629 150.33 38.0361 150.347C37.9094 150.363 37.7877 150.407 37.6793 150.475C37.571 150.543 37.4785 150.633 37.408 150.74C37.3376 150.847 37.2909 150.968 37.2711 151.095C37.2513 151.222 37.2589 151.351 37.2934 151.475H37.2971Z" fill="#661814"/>
<path d="M40.3129 143.346C39.7495 143.279 39.3923 142.348 39.3923 142.348C39.3923 142.348 39.952 141.52 40.519 141.587C40.6489 141.58 40.7787 141.602 40.8992 141.651C41.0197 141.7 41.1282 141.775 41.217 141.87C41.3058 141.966 41.3728 142.079 41.4133 142.203C41.4539 142.327 41.467 142.459 41.4518 142.588C41.4366 142.718 41.3934 142.843 41.3253 142.954C41.2572 143.065 41.1657 143.16 41.0573 143.232C40.9489 143.304 40.8261 143.352 40.6976 143.371C40.569 143.391 40.4377 143.382 40.3129 143.346Z" fill="#661814"/>
<path d="M37.8753 143.212C38.0557 142.673 39.0388 142.514 39.0388 142.514C39.0388 142.514 39.7311 143.253 39.547 143.778C39.5238 143.904 39.4739 144.023 39.4006 144.128C39.3274 144.233 39.2325 144.321 39.1224 144.386C39.0123 144.451 38.8896 144.492 38.7625 144.505C38.6355 144.518 38.5071 144.504 38.3861 144.463C38.265 144.422 38.1542 144.355 38.0611 144.268C37.9679 144.18 37.8946 144.073 37.8461 143.955C37.7977 143.836 37.7752 143.709 37.7802 143.58C37.7852 143.452 37.8177 143.327 37.8753 143.212Z" fill="#661814"/>
<path d="M38.0888 141.28C38.1624 141.845 39.0977 142.189 39.0977 142.189C39.0977 142.189 39.9152 141.616 39.8342 141.047C39.8354 140.919 39.8092 140.792 39.7573 140.675C39.7054 140.558 39.6291 140.454 39.5335 140.369C39.4379 140.284 39.3253 140.221 39.2032 140.183C39.0811 140.146 38.9525 140.135 38.826 140.152C38.6994 140.169 38.5779 140.213 38.4698 140.281C38.3616 140.349 38.2693 140.439 38.1991 140.546C38.1289 140.653 38.0823 140.774 38.0626 140.901C38.043 141.027 38.0506 141.157 38.0851 141.28H38.0888Z" fill="#661814"/>
<path d="M40.8578 161.082C40.3276 161.292 39.5764 160.638 39.5764 160.638C39.5764 160.638 39.6832 159.644 40.2134 159.434C40.3245 159.37 40.4478 159.332 40.575 159.321C40.7022 159.309 40.8303 159.326 40.9507 159.368C41.0711 159.411 41.1809 159.479 41.2727 159.569C41.3645 159.658 41.4361 159.765 41.4828 159.885C41.5294 160.004 41.55 160.132 41.543 160.26C41.5361 160.388 41.5019 160.513 41.4426 160.626C41.3833 160.74 41.3004 160.839 41.1995 160.918C41.0986 160.996 40.9821 161.052 40.8578 161.082Z" fill="#661814"/>
<path d="M38.6375 162.098C38.5418 161.532 39.3334 160.93 39.3334 160.93C39.3334 160.93 40.2798 161.237 40.3755 161.802C40.4153 161.924 40.4283 162.054 40.4137 162.182C40.3992 162.309 40.3573 162.432 40.291 162.542C40.2248 162.652 40.1357 162.747 40.0298 162.819C39.9239 162.891 39.8036 162.94 39.6773 162.961C39.551 162.983 39.4216 162.977 39.2978 162.944C39.1741 162.91 39.059 162.851 38.9603 162.769C38.8616 162.687 38.7817 162.584 38.726 162.469C38.6703 162.353 38.6401 162.226 38.6375 162.098Z" fill="#661814"/>
<path d="M37.923 160.287C38.2544 160.753 39.2413 160.612 39.2413 160.612C39.2413 160.612 39.6906 159.722 39.3592 159.256C39.3018 159.139 39.2198 159.036 39.1189 158.955C39.0179 158.873 38.9004 158.814 38.7745 158.782C38.6486 158.75 38.5173 158.747 38.3897 158.771C38.2622 158.795 38.1414 158.847 38.0358 158.923C37.9302 158.998 37.8423 159.096 37.7782 159.21C37.7141 159.323 37.6754 159.449 37.6647 159.579C37.654 159.709 37.6715 159.839 37.7161 159.962C37.7607 160.084 37.8313 160.195 37.923 160.287Z" fill="#661814"/>
<path d="M33.8248 168.978C34.3882 169.067 34.7122 170.013 34.7122 170.013C34.7122 170.013 34.1231 170.814 33.5597 170.729C33.4298 170.731 33.3011 170.705 33.1825 170.651C33.0639 170.598 32.9583 170.52 32.8729 170.422C32.7875 170.323 32.7245 170.208 32.6882 170.082C32.652 169.957 32.6432 169.826 32.6627 169.697C32.6822 169.568 32.7295 169.445 32.8012 169.336C32.8728 169.227 32.9673 169.136 33.0779 169.067C33.1884 168.999 33.3125 168.955 33.4415 168.94C33.5705 168.925 33.7013 168.938 33.8248 168.978Z" fill="#661814"/>
<path d="M36.2625 169.211C36.06 169.747 35.0731 169.869 35.0731 169.869C35.0731 169.869 34.4103 169.129 34.6091 168.59C34.634 168.462 34.6865 168.341 34.7627 168.235C34.839 168.13 34.9372 168.042 35.0506 167.979C35.164 167.915 35.2899 167.877 35.4194 167.867C35.549 167.857 35.6792 167.876 35.8009 167.921C35.9226 167.967 36.0329 168.039 36.1242 168.132C36.2154 168.224 36.2855 168.336 36.3294 168.459C36.3733 168.581 36.3901 168.712 36.3786 168.842C36.367 168.972 36.3274 169.098 36.2625 169.211Z" fill="#661814"/>
<path d="M35.9679 171.136C35.9164 170.567 34.9958 170.186 34.9958 170.186C34.9958 170.186 34.16 170.729 34.2115 171.295C34.2049 171.423 34.2259 171.551 34.2729 171.67C34.32 171.789 34.392 171.897 34.4842 171.986C34.5763 172.075 34.6865 172.143 34.8071 172.185C34.9277 172.227 35.056 172.243 35.1832 172.231C35.3105 172.219 35.4337 172.18 35.5446 172.117C35.6555 172.053 35.7514 171.966 35.8258 171.862C35.9002 171.757 35.9514 171.638 35.9759 171.512C36.0005 171.387 35.9978 171.257 35.9679 171.132V171.136Z" fill="#661814"/>
<path d="M33.5486 142.873C33.9831 143.242 33.7695 144.218 33.7695 144.218C33.7695 144.218 32.8489 144.587 32.4107 144.218C32.2995 144.151 32.2042 144.061 32.1312 143.953C32.0581 143.846 32.0092 143.724 31.9879 143.595C31.9665 143.467 31.9731 143.336 32.0073 143.21C32.0415 143.085 32.1024 142.968 32.1859 142.869C32.2694 142.769 32.3733 142.689 32.4907 142.634C32.608 142.579 32.7359 142.55 32.8655 142.549C32.9951 142.549 33.1233 142.576 33.2412 142.63C33.3592 142.684 33.464 142.763 33.5486 142.861V142.873Z" fill="#661814"/>
<path d="M35.5113 144.343C35.0621 144.713 34.1562 144.284 34.1562 144.284C34.1562 144.284 33.9757 143.301 34.425 142.95C34.5131 142.857 34.6204 142.784 34.7392 142.736C34.8581 142.688 34.9859 142.666 35.1138 142.672C35.2418 142.678 35.3671 142.712 35.4809 142.771C35.5947 142.83 35.6946 142.913 35.7735 143.014C35.8525 143.116 35.9087 143.233 35.9385 143.358C35.9682 143.483 35.9707 143.613 35.9459 143.739C35.921 143.865 35.8692 143.984 35.7942 144.089C35.7192 144.193 35.6227 144.28 35.5113 144.343Z" fill="#661814"/>
<path d="M34.263 145.836C34.5134 145.322 33.9242 144.517 33.9242 144.517C33.9242 144.517 32.9263 144.546 32.6759 145.06C32.6007 145.166 32.5494 145.288 32.5256 145.416C32.5018 145.544 32.5062 145.676 32.5383 145.802C32.5704 145.928 32.6295 146.046 32.7115 146.147C32.7936 146.248 32.8966 146.33 33.0134 146.387C33.1302 146.444 33.2579 146.475 33.3878 146.478C33.5177 146.48 33.6466 146.455 33.7655 146.402C33.8844 146.35 33.9905 146.272 34.0764 146.174C34.1623 146.076 34.226 145.961 34.263 145.836Z" fill="#661814"/>
<path d="M14.8136 99.659C15.2518 100.028 15.0345 101.004 15.0345 101.004C15.0345 101.004 14.1139 101.373 13.6794 101.004C13.571 100.936 13.4783 100.846 13.4076 100.739C13.3369 100.633 13.2899 100.512 13.2698 100.385C13.2497 100.259 13.2569 100.129 13.291 100.006C13.3251 99.8825 13.3851 99.7678 13.4672 99.6696C13.5493 99.5715 13.6514 99.4922 13.7667 99.4371C13.882 99.382 14.0077 99.3525 14.1354 99.3504C14.2631 99.3484 14.3897 99.3738 14.5067 99.4252C14.6237 99.4765 14.7284 99.5525 14.8136 99.6479V99.659Z" fill="#661814"/>
<path d="M16.7798 101.13C16.3306 101.499 15.4211 101.07 15.4211 101.07C15.4211 101.07 15.2444 100.088 15.6936 99.7329C15.7816 99.637 15.8893 99.5615 16.0092 99.5116C16.1292 99.4617 16.2585 99.4386 16.3882 99.444C16.518 99.4493 16.6451 99.4828 16.7606 99.5424C16.8761 99.6019 16.9773 99.686 17.0572 99.7887C17.1371 99.8914 17.1937 100.01 17.2232 100.137C17.2527 100.264 17.2543 100.396 17.2279 100.524C17.2015 100.651 17.1478 100.771 17.0704 100.876C16.993 100.981 16.8939 101.067 16.7798 101.13Z" fill="#661814"/>
<path d="M15.5279 102.622C15.7783 102.105 15.1891 101.303 15.1891 101.303C15.1891 101.303 14.1949 101.329 13.9445 101.843C13.8723 101.949 13.8236 102.069 13.8018 102.195C13.7799 102.322 13.7855 102.451 13.818 102.575C13.8505 102.699 13.9092 102.815 13.9902 102.914C14.0712 103.014 14.1724 103.094 14.2872 103.151C14.402 103.207 14.5276 103.238 14.6553 103.242C14.7831 103.245 14.9102 103.221 15.0279 103.171C15.1456 103.121 15.2511 103.046 15.3374 102.951C15.4237 102.857 15.4886 102.745 15.5279 102.622Z" fill="#661814"/>
<path d="M17.6231 107.555C17.925 107.071 18.9193 107.145 18.9193 107.145C18.9193 107.145 19.4237 108.006 19.1218 108.49C19.0724 108.611 18.9974 108.72 18.902 108.808C18.8066 108.897 18.693 108.964 18.5692 109.004C18.4454 109.044 18.3144 109.057 18.1852 109.041C18.0561 109.025 17.9319 108.981 17.8214 108.912C17.7109 108.843 17.6167 108.751 17.5454 108.642C17.4741 108.533 17.4274 108.409 17.4085 108.28C17.3896 108.151 17.3991 108.019 17.4361 107.894C17.4732 107.769 17.537 107.653 17.6231 107.555Z" fill="#661814"/>
<path d="M18.7866 105.397C19.199 105.793 18.9229 106.75 18.9229 106.75C18.9229 106.75 17.9766 107.071 17.5642 106.672C17.4599 106.598 17.3729 106.501 17.309 106.39C17.2452 106.279 17.2061 106.155 17.1943 106.027C17.1824 105.899 17.1981 105.77 17.2405 105.649C17.2828 105.527 17.3506 105.417 17.4394 105.324C17.5282 105.232 17.6358 105.159 17.7549 105.112C17.8741 105.065 18.0019 105.044 18.1297 105.051C18.2576 105.058 18.3824 105.093 18.4958 105.152C18.6091 105.212 18.7083 105.296 18.7866 105.397Z" fill="#661814"/>
<path d="M20.4362 106.425C19.895 106.247 19.1843 106.949 19.1843 106.949C19.1843 106.949 19.3537 107.936 19.895 108.11C20.0097 108.166 20.1352 108.197 20.2628 108.2C20.3905 108.203 20.5174 108.179 20.6349 108.129C20.7524 108.079 20.8578 108.004 20.9439 107.909C21.03 107.814 21.0948 107.702 21.134 107.58C21.1732 107.458 21.1858 107.329 21.171 107.202C21.1561 107.075 21.1143 106.952 21.0481 106.843C20.9819 106.733 20.893 106.639 20.7875 106.567C20.6819 106.495 20.5621 106.446 20.4362 106.425Z" fill="#661814"/>
<path d="M26.8618 104.799C26.6003 105.305 25.6024 105.309 25.6024 105.309C25.6024 105.309 25.0317 104.492 25.2932 103.982C25.3339 103.859 25.4008 103.746 25.4892 103.651C25.5777 103.556 25.6857 103.482 25.8056 103.433C25.9255 103.384 26.0545 103.362 26.1838 103.368C26.3131 103.374 26.4396 103.408 26.5545 103.468C26.6694 103.528 26.77 103.612 26.8494 103.714C26.9287 103.817 26.9849 103.936 27.0142 104.062C27.0434 104.189 27.0449 104.32 27.0186 104.447C26.9923 104.574 26.9388 104.694 26.8618 104.799Z" fill="#661814"/>
<path d="M25.8639 107.045C25.422 106.676 25.6246 105.704 25.6246 105.704C25.6246 105.704 26.5414 105.312 26.9796 105.675C27.0927 105.738 27.1907 105.826 27.2666 105.931C27.3424 106.037 27.3944 106.158 27.4189 106.286C27.4433 106.413 27.4397 106.545 27.4082 106.671C27.3768 106.798 27.3182 106.915 27.2366 107.017C27.1551 107.118 27.0526 107.2 26.9361 107.257C26.8197 107.315 26.6922 107.346 26.5625 107.348C26.4328 107.351 26.3041 107.325 26.1854 107.273C26.0666 107.221 25.9607 107.143 25.875 107.045H25.8639Z" fill="#661814"/>
<path d="M24.1406 106.151C24.6929 106.281 25.3483 105.527 25.3483 105.527C25.3483 105.527 25.1017 104.559 24.5456 104.418C24.4259 104.369 24.2968 104.346 24.1674 104.351C24.0379 104.356 23.9111 104.39 23.7958 104.449C23.6805 104.509 23.5795 104.592 23.4996 104.695C23.4197 104.797 23.363 104.916 23.3333 105.042C23.3036 105.169 23.3016 105.3 23.3275 105.428C23.3535 105.555 23.4066 105.675 23.4834 105.78C23.5602 105.885 23.6587 105.972 23.7722 106.034C23.8856 106.097 24.0113 106.135 24.1406 106.144V106.151Z" fill="#661814"/>
<path d="M34.1488 109.665C33.7032 110.035 32.7937 109.621 32.7937 109.621C32.7937 109.621 32.6022 108.638 33.0478 108.283C33.1353 108.19 33.2416 108.118 33.3595 108.069C33.4775 108.021 33.6043 107.999 33.7315 108.004C33.8587 108.009 33.9833 108.042 34.097 108.1C34.2106 108.157 34.3106 108.239 34.3903 108.338C34.47 108.438 34.5274 108.553 34.5588 108.677C34.5902 108.801 34.5948 108.93 34.5723 109.056C34.5497 109.182 34.5006 109.301 34.4282 109.406C34.3558 109.511 34.2617 109.6 34.1524 109.665H34.1488Z" fill="#661814"/>
<path d="M32.3298 111.309C32.072 110.8 32.6539 109.987 32.6539 109.987C32.6539 109.987 33.648 109.987 33.9058 110.515C33.979 110.62 34.0288 110.74 34.0519 110.866C34.0749 110.992 34.0705 111.122 34.0392 111.246C34.0078 111.371 33.9502 111.487 33.8702 111.587C33.7901 111.687 33.6896 111.769 33.5753 111.826C33.4611 111.884 33.3359 111.916 33.2081 111.921C33.0803 111.926 32.953 111.903 32.8348 111.854C32.7167 111.805 32.6105 111.731 32.5233 111.637C32.4362 111.543 32.3701 111.431 32.3298 111.309Z" fill="#661814"/>
<path d="M31.1146 109.791C31.5675 110.138 32.4698 109.713 32.4698 109.713C32.4698 109.713 32.6354 108.727 32.1825 108.383C32.0931 108.291 31.9849 108.22 31.8655 108.173C31.746 108.127 31.618 108.107 31.4902 108.115C31.3624 108.123 31.2379 108.159 31.125 108.219C31.0121 108.28 30.9135 108.364 30.8359 108.466C30.7584 108.568 30.7038 108.686 30.6757 108.812C30.6476 108.937 30.6467 109.067 30.6731 109.193C30.6996 109.318 30.7528 109.437 30.8289 109.54C30.9051 109.643 31.0025 109.729 31.1146 109.791Z" fill="#661814"/>
<path d="M39.8857 120.843C39.4401 121.212 38.527 120.798 38.527 120.798C38.527 120.798 38.3391 119.815 38.781 119.461C38.8677 119.364 38.9744 119.287 39.0937 119.235C39.213 119.184 39.342 119.159 39.4719 119.162C39.6017 119.166 39.7292 119.198 39.8456 119.256C39.9619 119.314 40.0642 119.396 40.1455 119.498C40.2267 119.6 40.285 119.718 40.3162 119.844C40.3474 119.971 40.3506 120.103 40.3259 120.231C40.3012 120.359 40.249 120.48 40.173 120.585C40.097 120.691 39.9989 120.779 39.8857 120.843Z" fill="#661814"/>
<path d="M38.0667 122.487C37.8089 121.977 38.387 121.164 38.387 121.164C38.387 121.164 39.3849 121.164 39.6427 121.693C39.7159 121.798 39.7657 121.917 39.7888 122.044C39.8118 122.17 39.8074 122.3 39.7761 122.424C39.7447 122.548 39.6871 122.664 39.6071 122.765C39.527 122.865 39.4265 122.946 39.3122 123.004C39.198 123.061 39.0727 123.094 38.9449 123.098C38.8171 123.103 38.6899 123.08 38.5717 123.031C38.4536 122.982 38.3473 122.908 38.2601 122.814C38.173 122.72 38.107 122.609 38.0667 122.487Z" fill="#661814"/>
<path d="M36.8516 120.968C37.3045 121.316 38.2066 120.891 38.2066 120.891C38.2066 120.891 38.3724 119.904 37.9195 119.561C37.83 119.469 37.7219 119.397 37.6024 119.351C37.4829 119.305 37.3549 119.285 37.2272 119.293C37.0994 119.301 36.9748 119.336 36.8619 119.397C36.749 119.457 36.6504 119.542 36.5729 119.644C36.4954 119.746 36.4407 119.864 36.4126 119.989C36.3845 120.114 36.3836 120.244 36.4101 120.37C36.4365 120.496 36.4897 120.614 36.5659 120.717C36.6421 120.821 36.7395 120.906 36.8516 120.968Z" fill="#661814"/>
<path d="M25.8308 112.337C26.199 111.897 27.1711 112.111 27.1711 112.111C27.1711 112.111 27.5393 113.031 27.1711 113.471C27.1055 113.584 27.0162 113.681 26.9095 113.755C26.8027 113.83 26.681 113.88 26.5528 113.903C26.4247 113.925 26.2932 113.92 26.1675 113.886C26.0419 113.852 25.925 113.792 25.8251 113.708C25.7252 113.624 25.6447 113.52 25.5891 113.402C25.5336 113.284 25.5044 113.155 25.5036 113.024C25.5027 112.894 25.5302 112.765 25.5842 112.646C25.6382 112.527 25.7173 112.422 25.816 112.337H25.8308Z" fill="#661814"/>
<path d="M27.2889 110.36C27.6571 110.811 27.2337 111.723 27.2337 111.723C27.2337 111.723 26.2542 111.904 25.9044 111.457C25.8109 111.369 25.7373 111.262 25.6887 111.143C25.6402 111.024 25.6178 110.895 25.6229 110.767C25.6281 110.638 25.6607 110.512 25.7187 110.397C25.7766 110.282 25.8586 110.181 25.9589 110.101C26.0592 110.021 26.1755 109.963 26.2999 109.932C26.4244 109.9 26.5541 109.896 26.6803 109.92C26.8064 109.943 26.9261 109.994 27.0311 110.068C27.1361 110.142 27.224 110.238 27.2889 110.349V110.36Z" fill="#661814"/>
<path d="M28.7802 111.609C28.2646 111.357 27.4656 111.956 27.4656 111.956C27.4656 111.956 27.4987 112.954 28.0105 113.201C28.1164 113.273 28.2364 113.322 28.3624 113.343C28.4884 113.364 28.6176 113.358 28.741 113.325C28.8645 113.291 28.9794 113.232 29.0779 113.15C29.1764 113.069 29.2563 112.967 29.3121 112.851C29.3678 112.736 29.3982 112.61 29.4012 112.481C29.4041 112.353 29.3794 112.226 29.329 112.108C29.2785 111.99 29.2034 111.885 29.1087 111.798C29.014 111.712 28.902 111.648 28.7802 111.609Z" fill="#661814"/>
<path d="M35.6659 129.367C36.0341 128.931 37.0062 129.142 37.0062 129.142C37.0062 129.142 37.3744 130.065 37.0062 130.505C36.9398 130.617 36.8502 130.713 36.7433 130.786C36.6365 130.859 36.5151 130.909 36.3874 130.93C36.2598 130.952 36.129 130.946 36.004 130.912C35.879 130.878 35.7629 130.817 35.6636 130.734C35.5643 130.65 35.4843 130.546 35.4289 130.429C35.3736 130.311 35.3444 130.183 35.3432 130.053C35.342 129.923 35.3689 129.795 35.4221 129.676C35.4753 129.558 35.5534 129.452 35.6512 129.367H35.6659Z" fill="#661814"/>
<path d="M37.1388 127.39C37.507 127.841 37.0836 128.754 37.0836 128.754C37.0836 128.754 36.1041 128.939 35.7542 128.488C35.6607 128.4 35.5872 128.292 35.5386 128.173C35.49 128.054 35.4676 127.926 35.4728 127.797C35.4779 127.668 35.5105 127.542 35.5685 127.427C35.6265 127.313 35.7084 127.212 35.8087 127.131C35.909 127.051 36.0253 126.993 36.1498 126.962C36.2743 126.931 36.404 126.927 36.5302 126.95C36.6563 126.974 36.7759 127.024 36.8809 127.098C36.9859 127.172 37.0739 127.268 37.1388 127.379V127.39Z" fill="#661814"/>
<path d="M38.6117 128.639C38.0999 128.392 37.2971 128.987 37.2971 128.987C37.2971 128.987 37.3303 129.984 37.8458 130.232C37.9517 130.304 38.072 130.353 38.1984 130.375C38.3249 130.397 38.4545 130.391 38.5784 130.358C38.7024 130.324 38.8177 130.265 38.9165 130.183C39.0154 130.101 39.0954 129.998 39.1512 129.882C39.2069 129.766 39.2371 129.64 39.2396 129.511C39.2421 129.382 39.2169 129.255 39.1656 129.137C39.1144 129.019 39.0384 128.913 38.9428 128.827C38.8472 128.741 38.7343 128.677 38.6117 128.639Z" fill="#661814"/>
<path d="M30.6177 117.646C31.1737 117.521 31.8218 118.278 31.8218 118.278C31.8218 118.278 31.5677 119.246 31.0117 119.387C30.8915 119.437 30.7617 119.46 30.6316 119.455C30.5015 119.45 30.3741 119.416 30.2584 119.356C30.1426 119.296 30.0413 119.212 29.9614 119.108C29.8816 119.005 29.8251 118.886 29.796 118.758C29.7669 118.631 29.7659 118.499 29.793 118.371C29.8201 118.243 29.8747 118.123 29.953 118.018C30.0312 117.914 30.1312 117.828 30.246 117.766C30.3609 117.704 30.4877 117.669 30.6177 117.661V117.646Z" fill="#661814"/>
<path d="M32.9706 116.959C32.9706 117.528 32.1053 118.009 32.1053 118.009C32.1053 118.009 31.2141 117.561 31.2068 116.989C31.1865 116.862 31.1935 116.733 31.2274 116.609C31.2614 116.486 31.3214 116.371 31.4035 116.272C31.4855 116.174 31.5876 116.095 31.7029 116.04C31.8182 115.984 31.9439 115.955 32.0717 115.953C32.1994 115.95 32.3261 115.976 32.4432 116.027C32.5603 116.078 32.665 116.154 32.7502 116.25C32.8355 116.345 32.8993 116.458 32.9373 116.58C32.9753 116.703 32.9866 116.832 32.9706 116.959Z" fill="#661814"/>
<path d="M33.4051 118.855C33.1473 118.349 32.1494 118.334 32.1494 118.334C32.1494 118.334 31.575 119.15 31.8328 119.66C31.8721 119.785 31.9379 119.899 32.0256 119.995C32.1133 120.091 32.2208 120.167 32.3407 120.217C32.4606 120.267 32.5899 120.291 32.7197 120.286C32.8495 120.281 32.9767 120.248 33.0924 120.188C33.2081 120.129 33.3095 120.045 33.3897 119.943C33.4699 119.84 33.5268 119.721 33.5566 119.594C33.5863 119.467 33.5882 119.335 33.562 119.208C33.5359 119.08 33.4823 118.96 33.4051 118.855Z" fill="#661814"/>
<path d="M56.069 129.825C55.5388 130.04 54.7803 129.393 54.7803 129.393C54.7803 129.393 54.8798 128.399 55.41 128.185C55.5205 128.12 55.6436 128.079 55.771 128.066C55.8985 128.053 56.0272 128.068 56.1485 128.109C56.2698 128.151 56.3807 128.218 56.4738 128.306C56.5668 128.395 56.6397 128.502 56.6876 128.621C56.7355 128.741 56.7573 128.869 56.7514 128.997C56.7454 129.126 56.7119 129.251 56.6532 129.366C56.5945 129.48 56.5119 129.58 56.4111 129.659C56.3103 129.739 56.1936 129.795 56.069 129.825Z" fill="#661814"/>
<path d="M53.856 130.878C53.7566 130.317 54.5409 129.703 54.5409 129.703C54.5409 129.703 55.491 130.006 55.5904 130.568C55.6318 130.69 55.6464 130.82 55.6333 130.948C55.6202 131.076 55.5796 131.2 55.5143 131.311C55.4491 131.422 55.3607 131.517 55.2553 131.591C55.1498 131.664 55.0297 131.714 54.9033 131.737C54.7769 131.759 54.6471 131.754 54.5228 131.722C54.3985 131.689 54.2827 131.63 54.1832 131.549C54.0838 131.467 54.003 131.365 53.9465 131.25C53.8901 131.134 53.8592 131.007 53.856 130.878Z" fill="#661814"/>
<path d="M53.1269 129.075C53.462 129.537 54.4488 129.389 54.4488 129.389C54.4488 129.389 54.887 128.495 54.5519 128.033C54.4924 127.92 54.4092 127.82 54.308 127.742C54.2067 127.663 54.0897 127.607 53.9651 127.578C53.8404 127.549 53.711 127.547 53.5855 127.573C53.4601 127.598 53.3417 127.651 53.2383 127.726C53.1348 127.802 53.0488 127.899 52.9861 128.011C52.9234 128.123 52.8856 128.247 52.875 128.375C52.8644 128.503 52.8814 128.632 52.9249 128.753C52.9684 128.874 53.0373 128.984 53.1269 129.075Z" fill="#661814"/>
<path d="M51.1312 136.351C50.5826 136.196 50.3727 135.22 50.3727 135.22C50.3727 135.22 51.0576 134.481 51.6063 134.644C51.7351 134.658 51.8594 134.7 51.9703 134.768C52.0813 134.835 52.1764 134.926 52.2489 135.034C52.3215 135.141 52.3699 135.264 52.3906 135.392C52.4114 135.521 52.4041 135.652 52.3692 135.778C52.3343 135.903 52.2727 136.019 52.1886 136.118C52.1045 136.217 52 136.297 51.8822 136.351C51.7645 136.406 51.6363 136.434 51.5067 136.434C51.377 136.434 51.2489 136.405 51.1312 136.351Z" fill="#661814"/>
<path d="M48.7524 135.83C49.0138 135.324 50.008 135.32 50.008 135.32C50.008 135.32 50.5788 136.14 50.3173 136.646C50.2752 136.767 50.2076 136.878 50.1191 136.971C50.0307 137.063 49.9234 137.135 49.8047 137.183C49.6859 137.23 49.5583 137.251 49.4307 137.245C49.3031 137.238 49.1784 137.204 49.065 137.145C48.9516 137.086 48.8522 137.003 48.7736 136.902C48.695 136.801 48.6389 136.684 48.6093 136.559C48.5796 136.434 48.577 136.305 48.6017 136.179C48.6264 136.053 48.6778 135.934 48.7524 135.83Z" fill="#661814"/>
<path d="M49.2901 133.953C49.2901 134.525 50.1444 135.013 50.1444 135.013C50.1444 135.013 51.0391 134.573 51.0539 134.001C51.0791 133.873 51.0761 133.74 51.0452 133.614C51.0143 133.487 50.9562 133.368 50.8749 133.266C50.7936 133.164 50.6912 133.081 50.5747 133.023C50.4582 132.965 50.3304 132.933 50.2003 132.929C50.0702 132.926 49.9409 132.951 49.8214 133.002C49.7019 133.054 49.5951 133.132 49.5084 133.229C49.4218 133.326 49.3574 133.442 49.3197 133.567C49.2819 133.692 49.2718 133.823 49.2901 133.953Z" fill="#661814"/>
<path d="M47.2538 130.043C47.217 130.612 46.3112 131.023 46.3112 131.023C46.3112 131.023 45.4569 130.509 45.49 129.936C45.4773 129.807 45.4927 129.676 45.5352 129.554C45.5776 129.431 45.6461 129.319 45.7359 129.225C45.8257 129.132 45.9347 129.059 46.0553 129.011C46.1759 128.964 46.3054 128.944 46.4346 128.952C46.5638 128.96 46.6898 128.995 46.8039 129.057C46.918 129.118 47.0174 129.204 47.0953 129.308C47.1732 129.412 47.2277 129.531 47.2551 129.658C47.2825 129.785 47.282 129.917 47.2538 130.043Z" fill="#661814"/>
<path d="M47.2502 132.482C46.7015 132.331 46.4879 131.374 46.4879 131.374C46.4879 131.374 47.1692 130.635 47.7178 130.793C47.8473 130.807 47.9725 130.848 48.0845 130.914C48.1965 130.981 48.2927 131.071 48.3663 131.179C48.44 131.287 48.4893 131.409 48.5109 131.538C48.5325 131.667 48.5257 131.799 48.4912 131.925C48.4567 132.051 48.3952 132.168 48.311 132.267C48.2269 132.367 48.1221 132.447 48.004 132.502C47.8858 132.557 47.7571 132.585 47.6269 132.585C47.4967 132.585 47.3681 132.556 47.2502 132.501V132.482Z" fill="#661814"/>
<path d="M45.3132 132.368C45.8729 132.264 46.1638 131.307 46.1638 131.307C46.1638 131.307 45.5453 130.524 44.9856 130.627C44.8556 130.63 44.7277 130.661 44.611 130.718C44.4942 130.776 44.3913 130.858 44.3094 130.959C44.2275 131.061 44.1686 131.179 44.1367 131.305C44.1049 131.431 44.1009 131.563 44.1251 131.692C44.1492 131.82 44.2009 131.941 44.2765 132.047C44.3522 132.153 44.4499 132.242 44.563 132.306C44.6761 132.37 44.8018 132.409 44.9313 132.42C45.0609 132.43 45.1912 132.413 45.3132 132.368Z" fill="#661814"/>
<path d="M23.3378 178.766H52.0369C52.136 178.766 52.2338 178.789 52.3232 178.831C52.4126 178.874 52.4913 178.936 52.5537 179.013C52.6161 179.091 52.6607 179.181 52.684 179.277C52.7074 179.374 52.7089 179.474 52.6887 179.572L52.3021 181.364C52.2694 181.512 52.1875 181.645 52.0698 181.74C51.952 181.836 51.8053 181.888 51.654 181.888H24.0117C23.8766 181.888 23.7449 181.846 23.6338 181.769C23.5228 181.692 23.4375 181.583 23.3893 181.456L22.7155 179.668C22.6782 179.567 22.6656 179.458 22.679 179.351C22.6924 179.245 22.7313 179.143 22.7924 179.054C22.8535 178.966 22.935 178.893 23.0299 178.843C23.1249 178.793 23.2305 178.767 23.3378 178.766Z" stroke="#661814" stroke-miterlimit="10"/>
<path d="M25.6134 184.704C25.9338 184.704 50.1222 181.889 50.1222 181.889H25.3225L25.6134 184.704Z" fill="#661814"/>
<path d="M236.103 206.416V30.2772C236.104 26.3285 235.329 22.4184 233.824 18.7701C232.318 15.1218 230.111 11.8069 227.329 9.01454C224.547 6.22221 221.244 4.00715 217.608 2.49593C213.973 0.984717 210.076 0.206921 206.141 0.206921H173.535" stroke="#661814" stroke-miterlimit="10"/>
<path d="M141.688 8.99006H210.269L186.824 1.74779C179.031 -0.660833 170.684 -0.580783 162.938 1.97688L141.688 8.99006Z" fill="#661814"/>
<path d="M36.1667 146.908C89.3894 160.431 168.196 213.075 253.727 125.716" stroke="#661814" stroke-miterlimit="10"/>
<path d="M180.646 70.1689C189.492 70.1689 196.663 62.9725 196.663 54.0954C196.663 45.2183 189.492 38.022 180.646 38.022C171.799 38.022 164.628 45.2183 164.628 54.0954C164.628 62.9725 171.799 70.1689 180.646 70.1689Z" stroke="#661814" stroke-miterlimit="10"/>
<path d="M180.646 43.2283V54.0954H190.687" stroke="#661814" stroke-miterlimit="10"/>
</g>
<defs>
<clipPath id="clip0_9_141">
<rect width="257" height="207" fill="white"/>
</clipPath>
</defs>
</svg>
