<svg width="55" height="55" viewBox="0 0 55 55" fill="none" xmlns="http://www.w3.org/2000/svg">
<path d="M17.6172 12.0312V5.15625C17.6172 4.81437 17.753 4.48649 17.9947 4.24475C18.2365 4.003 18.5644 3.86719 18.9062 3.86719C19.2481 3.86719 19.576 4.003 19.8178 4.24475C20.0595 4.48649 20.1953 4.81437 20.1953 5.15625V12.0312C20.1953 12.3731 20.0595 12.701 19.8178 12.9428C19.576 13.1845 19.2481 13.3203 18.9062 13.3203C18.5644 13.3203 18.2365 13.1845 17.9947 12.9428C17.753 12.701 17.6172 12.3731 17.6172 12.0312ZM25.7812 13.3203C26.1231 13.3203 26.451 13.1845 26.6928 12.9428C26.9345 12.701 27.0703 12.3731 27.0703 12.0312V5.15625C27.0703 4.81437 26.9345 4.48649 26.6928 4.24475C26.451 4.003 26.1231 3.86719 25.7812 3.86719C25.4394 3.86719 25.1115 4.003 24.8697 4.24475C24.628 4.48649 24.4922 4.81437 24.4922 5.15625V12.0312C24.4922 12.3731 24.628 12.701 24.8697 12.9428C25.1115 13.1845 25.4394 13.3203 25.7812 13.3203ZM32.6562 13.3203C32.9981 13.3203 33.326 13.1845 33.5678 12.9428C33.8095 12.701 33.9453 12.3731 33.9453 12.0312V5.15625C33.9453 4.81437 33.8095 4.48649 33.5678 4.24475C33.326 4.003 32.9981 3.86719 32.6562 3.86719C32.3144 3.86719 31.9865 4.003 31.7447 4.24475C31.503 4.48649 31.3672 4.81437 31.3672 5.15625V12.0312C31.3672 12.3731 31.503 12.701 31.7447 12.9428C31.9865 13.1845 32.3144 13.3203 32.6562 13.3203ZM52.8516 25.7812V27.5C52.8524 29.6264 52.0236 31.6691 50.5414 33.1938C49.0593 34.7185 47.0408 35.6047 44.9152 35.6641C43.6502 39.3973 41.3265 42.6818 38.2271 45.1172H44.6875C45.0294 45.1172 45.3573 45.253 45.599 45.4947C45.8408 45.7365 45.9766 46.0644 45.9766 46.4062C45.9766 46.7481 45.8408 47.076 45.599 47.3178C45.3573 47.5595 45.0294 47.6953 44.6875 47.6953H6.875C6.53312 47.6953 6.20524 47.5595 5.9635 47.3178C5.72175 47.076 5.58594 46.7481 5.58594 46.4062C5.58594 46.0644 5.72175 45.7365 5.9635 45.4947C6.20524 45.253 6.53312 45.1172 6.875 45.1172H13.3354C10.9262 43.2251 8.97724 40.8115 7.63502 38.0578C6.2928 35.3042 5.59222 32.2821 5.58594 29.2188V18.9062C5.58594 18.5644 5.72175 18.2365 5.9635 17.9947C6.20524 17.753 6.53312 17.6172 6.875 17.6172H44.6875C46.8527 17.6172 48.9293 18.4773 50.4604 20.0084C51.9914 21.5394 52.8516 23.616 52.8516 25.7812ZM43.3984 29.2188V20.1953H8.16406V29.2188C8.17088 32.5436 9.11533 35.799 10.8889 38.6113C12.6626 41.4235 15.1934 43.6785 18.1908 45.1172H33.3717C36.3691 43.6785 38.8999 41.4235 40.6736 38.6113C42.4472 35.799 43.3916 32.5436 43.3984 29.2188ZM50.2734 25.7812C50.273 24.5242 49.8487 23.3041 49.0689 22.3181C48.2892 21.3321 47.1997 20.6379 45.9766 20.3479V29.2188C45.9762 30.4907 45.8546 31.7597 45.6135 33.0086C46.9161 32.7896 48.099 32.1161 48.9522 31.1076C49.8053 30.0991 50.2734 28.8209 50.2734 27.5V25.7812Z" fill="#B6605C"/>
</svg>
