<svg width="26" height="20" viewBox="0 0 26 20" fill="none" xmlns="http://www.w3.org/2000/svg">
<path d="M1.29124 3.71C1.19789 3.61708 1.12382 3.50664 1.07327 3.38501C1.02272 3.26338 0.996704 3.13296 0.996704 3.00125C0.996704 2.86954 1.02272 2.73912 1.07327 2.61749C1.12382 2.49586 1.19789 2.38542 1.29124 2.2925C1.38749 2.19875 3.63749 0 7.99999 0C10.3025 0 12.03 1.15125 13.555 2.1675C14.9675 3.11 16.3025 4 18 4C19.3706 4.02046 20.7278 3.72849 21.9687 3.14625C22.45 2.92422 22.8974 2.63509 23.2975 2.2875C23.3907 2.195 23.5013 2.12177 23.6228 2.07199C23.7444 2.02221 23.8745 1.99686 24.0058 1.99739C24.1372 1.99791 24.2671 2.02429 24.3883 2.07504C24.5094 2.12578 24.6194 2.19989 24.7119 2.29313C24.8044 2.38636 24.8776 2.49691 24.9274 2.61845C24.9772 2.73999 25.0025 2.87014 25.002 3.00148C25.0015 3.13281 24.9751 3.26276 24.9243 3.3839C24.8736 3.50504 24.7995 3.615 24.7062 3.7075C24.6125 3.80125 22.3625 6 18 6C15.6975 6 13.97 4.84875 12.445 3.8325C11.0325 2.89 9.69749 2 7.99999 2C6.62941 1.97954 5.27217 2.27151 4.03124 2.85375C3.54998 3.07578 3.10261 3.36491 2.70249 3.7125C2.51475 3.8988 2.26084 4.00313 1.99635 4.00267C1.73186 4.0022 1.47833 3.89696 1.29124 3.71ZM23.2975 9.2875C22.8974 9.63509 22.45 9.92422 21.9687 10.1462C20.7278 10.7285 19.3706 11.0205 18 11C16.3025 11 14.9675 10.11 13.555 9.1675C12.03 8.15125 10.3025 7 7.99999 7C3.63749 7 1.38749 9.19875 1.29374 9.2925C1.10544 9.47931 0.99906 9.73328 0.998005 9.99852C0.99695 10.2638 1.10131 10.5186 1.28812 10.7069C1.47493 10.8952 1.72889 11.0016 1.99414 11.0026C2.25939 11.0037 2.51419 10.8993 2.70249 10.7125C3.10261 10.3649 3.54998 10.0758 4.03124 9.85375C5.27217 9.27151 6.62941 8.97954 7.99999 9C9.69749 9 11.0325 9.89 12.445 10.8325C13.97 11.8488 15.695 13 18 13C22.3625 13 24.6125 10.8013 24.7062 10.7075C24.7995 10.615 24.8736 10.505 24.9243 10.3839C24.9751 10.2628 25.0015 10.1328 25.002 10.0015C25.0025 9.87014 24.9772 9.73999 24.9274 9.61845C24.8776 9.49691 24.8044 9.38636 24.7119 9.29313C24.6194 9.19989 24.5094 9.12578 24.3883 9.07504C24.2671 9.02429 24.1372 8.99791 24.0058 8.99739C23.8745 8.99686 23.7444 9.02221 23.6228 9.07199C23.5013 9.12177 23.3907 9.195 23.2975 9.2875ZM23.2975 16.2875C22.8974 16.6351 22.45 16.9242 21.9687 17.1462C20.7278 17.7285 19.3706 18.0205 18 18C16.3025 18 14.9675 17.11 13.555 16.1675C12.03 15.1512 10.3025 14 7.99999 14C3.63749 14 1.38749 16.1987 1.29374 16.2925C1.10544 16.4793 0.99906 16.7333 0.998005 16.9985C0.99695 17.2638 1.10131 17.5186 1.28812 17.7069C1.47493 17.8952 1.72889 18.0016 1.99414 18.0026C2.25939 18.0037 2.51419 17.8993 2.70249 17.7125C3.10261 17.3649 3.54998 17.0758 4.03124 16.8538C5.27217 16.2715 6.62941 15.9795 7.99999 16C9.69749 16 11.0325 16.89 12.445 17.8325C13.97 18.8488 15.695 20 18 20C22.3625 20 24.6125 17.8013 24.7062 17.7075C24.8945 17.5207 25.0009 17.2667 25.002 17.0015C25.003 16.7362 24.8987 16.4814 24.7119 16.2931C24.5251 16.1048 24.2711 15.9984 24.0058 15.9974C23.7406 15.9963 23.4858 16.1007 23.2975 16.2875Z" fill="#B6605C"/>
</svg>
