<svg width="29" height="24" viewBox="0 0 29 24" fill="none" xmlns="http://www.w3.org/2000/svg">
<path d="M20.75 0C18.1688 0 15.9088 1.11 14.5 2.98625C13.0912 1.11 10.8313 0 8.25 0C6.19528 0.00231592 4.22539 0.819575 2.77248 2.27248C1.31958 3.72539 0.502316 5.69528 0.5 7.75C0.5 16.5 13.4738 23.5825 14.0262 23.875C14.1719 23.9533 14.3346 23.9943 14.5 23.9943C14.6654 23.9943 14.8281 23.9533 14.9737 23.875C15.5262 23.5825 28.5 16.5 28.5 7.75C28.4977 5.69528 27.6804 3.72539 26.2275 2.27248C24.7746 0.819575 22.8047 0.00231592 20.75 0ZM14.5 21.85C12.2175 20.52 2.5 14.4613 2.5 7.75C2.50198 6.22561 3.10842 4.76423 4.18633 3.68633C5.26423 2.60842 6.72561 2.00198 8.25 2C10.6812 2 12.7225 3.295 13.575 5.375C13.6503 5.55841 13.7785 5.71528 13.9432 5.82569C14.1079 5.93609 14.3017 5.99503 14.5 5.99503C14.6983 5.99503 14.8921 5.93609 15.0568 5.82569C15.2215 5.71528 15.3497 5.55841 15.425 5.375C16.2775 3.29125 18.3188 2 20.75 2C22.2744 2.00198 23.7358 2.60842 24.8137 3.68633C25.8916 4.76423 26.498 6.22561 26.5 7.75C26.5 14.4513 16.78 20.5188 14.5 21.85Z" fill="#B6605C"/>
</svg>
