<svg width="27" height="26" viewBox="0 0 27 26" fill="none" xmlns="http://www.w3.org/2000/svg">
<path d="M13.5 0C10.9288 0 8.41543 0.762437 6.27759 2.1909C4.13975 3.61935 2.47351 5.64968 1.48957 8.02512C0.505633 10.4006 0.248189 13.0144 0.749797 15.5362C1.25141 18.0579 2.48953 20.3743 4.30762 22.1924C6.1257 24.0105 8.44208 25.2486 10.9638 25.7502C13.4856 26.2518 16.0995 25.9944 18.4749 25.0104C20.8503 24.0265 22.8807 22.3603 24.3091 20.2224C25.7376 18.0846 26.5 15.5712 26.5 13C26.4964 9.5533 25.1256 6.24882 22.6884 3.81163C20.2512 1.37445 16.9467 0.00363977 13.5 0ZM13.5 24C11.3244 24 9.19767 23.3549 7.38873 22.1462C5.57979 20.9375 4.16989 19.2195 3.33733 17.2095C2.50477 15.1995 2.28693 12.9878 2.71137 10.854C3.13581 8.72022 4.18345 6.7602 5.72183 5.22183C7.26021 3.68345 9.22022 2.6358 11.354 2.21136C13.4878 1.78692 15.6995 2.00476 17.7095 2.83733C19.7195 3.66989 21.4375 5.07979 22.6462 6.88873C23.8549 8.69767 24.5 10.8244 24.5 13C24.4967 15.9164 23.3367 18.7123 21.2745 20.7745C19.2123 22.8367 16.4164 23.9967 13.5 24ZM21.5 13C21.5 13.2652 21.3946 13.5196 21.2071 13.7071C21.0196 13.8946 20.7652 14 20.5 14H13.5C13.2348 14 12.9804 13.8946 12.7929 13.7071C12.6054 13.5196 12.5 13.2652 12.5 13V6C12.5 5.73478 12.6054 5.48043 12.7929 5.29289C12.9804 5.10536 13.2348 5 13.5 5C13.7652 5 14.0196 5.10536 14.2071 5.29289C14.3946 5.48043 14.5 5.73478 14.5 6V12H20.5C20.7652 12 21.0196 12.1054 21.2071 12.2929C21.3946 12.4804 21.5 12.7348 21.5 13Z" fill="#B6605C"/>
</svg>
