<svg width="25" height="24" viewBox="0 0 25 24" fill="none" xmlns="http://www.w3.org/2000/svg">
<path d="M16.7806 9.21937C16.8504 9.28903 16.9057 9.37175 16.9434 9.46279C16.9812 9.55384 17.0006 9.65144 17.0006 9.75C17.0006 9.84856 16.9812 9.94616 16.9434 10.0372C16.9057 10.1283 16.8504 10.211 16.7806 10.2806L11.5306 15.5306C11.461 15.6004 11.3783 15.6557 11.2872 15.6934C11.1962 15.7312 11.0986 15.7506 11 15.7506C10.9014 15.7506 10.8038 15.7312 10.7128 15.6934C10.6218 15.6557 10.539 15.6004 10.4694 15.5306L8.21938 13.2806C8.07865 13.1399 7.99959 12.949 7.99959 12.75C7.99959 12.551 8.07865 12.3601 8.21938 12.2194C8.36011 12.0786 8.55098 11.9996 8.75 11.9996C8.94903 11.9996 9.1399 12.0786 9.28063 12.2194L11 13.9397L15.7194 9.21937C15.789 9.14964 15.8718 9.09432 15.9628 9.05658C16.0538 9.01884 16.1514 8.99941 16.25 8.99941C16.3486 8.99941 16.4462 9.01884 16.5372 9.05658C16.6283 9.09432 16.711 9.14964 16.7806 9.21937ZM22.25 12C22.25 13.9284 21.6782 15.8134 20.6068 17.4168C19.5355 19.0202 18.0127 20.2699 16.2312 21.0078C14.4496 21.7458 12.4892 21.9389 10.5979 21.5627C8.70656 21.1865 6.96928 20.2579 5.60571 18.8943C4.24215 17.5307 3.31355 15.7934 2.93735 13.9021C2.56114 12.0108 2.75422 10.0504 3.49218 8.26884C4.23013 6.48726 5.47982 4.96451 7.08319 3.89317C8.68657 2.82183 10.5716 2.25 12.5 2.25C15.085 2.25273 17.5634 3.28084 19.3913 5.10872C21.2192 6.93661 22.2473 9.41498 22.25 12ZM20.75 12C20.75 10.3683 20.2661 8.77325 19.3596 7.41655C18.4531 6.05984 17.1646 5.00242 15.6571 4.37799C14.1497 3.75357 12.4909 3.59019 10.8905 3.90852C9.29017 4.22685 7.82016 5.01259 6.66637 6.16637C5.51259 7.32015 4.72685 8.79016 4.40853 10.3905C4.0902 11.9908 4.25358 13.6496 4.878 15.1571C5.50242 16.6646 6.55984 17.9531 7.91655 18.8596C9.27326 19.7661 10.8683 20.25 12.5 20.25C14.6873 20.2475 16.7843 19.3775 18.3309 17.8309C19.8775 16.2843 20.7475 14.1873 20.75 12Z" fill="#B6605C"/>
</svg>
