<svg width="25" height="26" viewBox="0 0 25 26" fill="none" xmlns="http://www.w3.org/2000/svg">
<path d="M22.5 2H19.5V1C19.5 0.734784 19.3946 0.48043 19.2071 0.292893C19.0196 0.105357 18.7652 0 18.5 0C18.2348 0 17.9804 0.105357 17.7929 0.292893C17.6054 0.48043 17.5 0.734784 17.5 1V2H7.5V1C7.5 0.734784 7.39464 0.48043 7.20711 0.292893C7.01957 0.105357 6.76522 0 6.5 0C6.23478 0 5.98043 0.105357 5.79289 0.292893C5.60536 0.48043 5.5 0.734784 5.5 1V2H2.5C1.96957 2 1.46086 2.21071 1.08579 2.58579C0.710714 2.96086 0.5 3.46957 0.5 4V24C0.5 24.5304 0.710714 25.0391 1.08579 25.4142C1.46086 25.7893 1.96957 26 2.5 26H22.5C23.0304 26 23.5391 25.7893 23.9142 25.4142C24.2893 25.0391 24.5 24.5304 24.5 24V4C24.5 3.46957 24.2893 2.96086 23.9142 2.58579C23.5391 2.21071 23.0304 2 22.5 2ZM5.5 4V5C5.5 5.26522 5.60536 5.51957 5.79289 5.70711C5.98043 5.89464 6.23478 6 6.5 6C6.76522 6 7.01957 5.89464 7.20711 5.70711C7.39464 5.51957 7.5 5.26522 7.5 5V4H17.5V5C17.5 5.26522 17.6054 5.51957 17.7929 5.70711C17.9804 5.89464 18.2348 6 18.5 6C18.7652 6 19.0196 5.89464 19.2071 5.70711C19.3946 5.51957 19.5 5.26522 19.5 5V4H22.5V8H2.5V4H5.5ZM22.5 24H2.5V10H22.5V24ZM17.7075 13.2925C17.8005 13.3854 17.8742 13.4957 17.9246 13.6171C17.9749 13.7385 18.0008 13.8686 18.0008 14C18.0008 14.1314 17.9749 14.2615 17.9246 14.3829C17.8742 14.5043 17.8005 14.6146 17.7075 14.7075L11.7075 20.7075C11.6146 20.8005 11.5043 20.8742 11.3829 20.9246C11.2615 20.9749 11.1314 21.0008 11 21.0008C10.8686 21.0008 10.7385 20.9749 10.6171 20.9246C10.4957 20.8742 10.3854 20.8005 10.2925 20.7075L7.2925 17.7075C7.10486 17.5199 6.99944 17.2654 6.99944 17C6.99944 16.7346 7.10486 16.4801 7.2925 16.2925C7.48014 16.1049 7.73464 15.9994 8 15.9994C8.26536 15.9994 8.51986 16.1049 8.7075 16.2925L11 18.5863L16.2925 13.2925C16.3854 13.1995 16.4957 13.1258 16.6171 13.0754C16.7385 13.0251 16.8686 12.9992 17 12.9992C17.1314 12.9992 17.2615 13.0251 17.3829 13.0754C17.5043 13.1258 17.6146 13.1995 17.7075 13.2925Z" fill="#B6605C"/>
</svg>
